/* XPM */
static char *_1d05974eab048f5eb5b7a9f02ed62abYcslNvV07QNTijqu[] = {
/* columns rows colors chars-per-pixel */
"50 49 26 1 ",
"  c #4D93E2",
". c #4D93E3",
"X c #4D94E4",
"o c #4D94E5",
"O c #4E94E5",
"+ c #4E95E6",
"@ c #4F98EA",
"# c #5098EA",
"$ c #5099EC",
"% c #5199ED",
"& c #519AED",
"* c #519BEF",
"= c #529BF0",
"- c #529DF2",
"; c #539DF3",
": c #539EF4",
"> c #549FF6",
", c #54A0F6",
"< c #54A0F7",
"1 c #54A0F8",
"2 c #55A1F8",
"3 c #55A2FA",
"4 c #56A3FC",
"5 c #57A4FE",
"6 c #57A5FF",
"7 c #58A7FF",
/* pixels */
"666666666666667- XXXXXXXXXXXXXXXX37556666666666666",
"666666666666666-X%%%@%%%%%@%%%%%X37766666666666666",
"66666666666666666677666676666677666666666666666666",
"66666666666666666665666666666665666666666666666666",
"66666666666666666666666666666666666666666666666666",
"66666666666666666666666666666666666666666666666666",
"66666666666666666666666666666666666666666666666666",
"66666666666666666666666666666666666666666666666666",
"66665556666666666666666666666666666666765557666566",
"66767776666666666666666666666666666666777777666766",
"3333533333335557666666666666666666663333333:335333",
"XXXXXXXXXXX -65566666666666666666666# XXXXOXXXXXXX",
"XXXXXXXXXXX :77566666666666666666667%XXXXXXOXXXXXX",
"%%@%%%%@%%%#;3:566666666666666666333-%%@%%#%@@=%%%",
"757676677757;X :66666666666666656%X 37667555676677",
"755575665557-  :77676767676666667%  <6557575666655",
"666666666666:%%::33:3333<<<<<2223*%%35666666666666",
"666666666666577%XXXXXXXX+XOO++++X<7757666666666666",
"666666666666757-XXXXXXXX++++O+OOX-7456666666666666",
"666666666666657:%%%-%-%%%%%%&&&&#36766666666666666",
"66666666666673737766667657777775647447476666666666",
"66666666666657576766666655557775744774746666666666",
"66666666666673756666666675373737474747476666666666",
"66666666666657376666666675757573747474746666666666",
"66666666737375736666666655666666474747476666666666",
"66666666575737576666666657666666747474746666666666",
"66666666737573736666666656666666474747476666666666",
"66666666573757576666666666666666747474746666666666",
"74666666737366666666666666666666474774666666666666",
"47476666575766666666666666666666747447476666666666",
"76777777777766666666666666666666474777777767776776",
"4-;3;;3;:3::3666666666666666666674764--3<-4;<<<<<<",
"X+++XXX+++XX=77766666666666637575737%XXXXX+OOOOOXX",
"XXXOXXX+OOX :76566666666666675737557%XXX#XXXOO OX ",
"=%#-%*-%*=%%::;5565766666666373773:3-*=%%%-%=%=#%-",
"675777677577:X -57556666666675755%  <6667777677776",
"666666666666-XX:77777766777777777%XX:7666666666666",
"666666666666:%=::::>;<<<3:>>3;:::=%%37666666666666",
"666666666666757- O#XXXXX XXX XX#X55666666666666666",
"666666666665557=+XXXXXXX XXXXXXXX:6666666666666666",
"666666666666666:%-%%-%%=*%-%**=%%37666666666666666",
"66666666666666777777677777677766766666666666666666",
"66666666666666666666666666666666666666666666666666",
"66666666666666666666666666666666666666666666666666",
"66666666666666666666666666666666666666666666666666",
"66666666666666666666666666666666666666666666666666",
"66666666666666666666666666666666666666666666666666",
"66666666666666666666666666666666666666666666666666",
"66666666666666666666666666666666666666666666666666"
};
