/* XPM */
static char *b134752436f541e9d7c4761d101a0211RjsCCQoRG93NmMXX[] = {
/* columns rows colors chars-per-pixel */
"35 35 109 2 ",
"   c None",
".  c black",
"X  c #280000",
"o  c #142E2D",
"O  c #2D2524",
"+  c #362221",
"@  c #501E1E",
"#  c #443F3E",
"$  c #752F30",
"%  c #763535",
"&  c #773839",
"*  c #78393A",
"=  c #494443",
"-  c #464948",
";  c #4C4848",
":  c #575353",
">  c #7C4343",
",  c #716E6E",
"<  c #737171",
"1  c #8F3637",
"2  c #BE272B",
"3  c #E70002",
"4  c #E80000",
"5  c #E50009",
"6  c #E60012",
"7  c #E80013",
"8  c #E70718",
"9  c #E50C1A",
"0  c #E5121D",
"q  c #E61620",
"w  c #E61D26",
"e  c #EC1E27",
"r  c #E61F28",
"t  c #EB1F28",
"y  c #D1252B",
"u  c #DB2C31",
"i  c #E62129",
"p  c #EA2029",
"a  c #E6282F",
"s  c #E52D33",
"d  c #E82E35",
"f  c #E53136",
"g  c #E63339",
"h  c #805151",
"j  c #E84146",
"k  c #E64549",
"l  c #E84449",
"z  c #E74A4D",
"x  c #E94B4F",
"c  c #EB4E53",
"v  c #E95357",
"b  c #E55659",
"n  c #EC575C",
"m  c #E6595C",
"M  c #EC595E",
"N  c #E45E61",
"B  c #E46063",
"V  c #EB6164",
"C  c #EB6F71",
"Z  c #E67576",
"A  c #ED7276",
"S  c #E7787A",
"D  c #EC787B",
"F  c #F17075",
"G  c #F27479",
"H  c #F2797D",
"J  c #E67F80",
"K  c #EB7D80",
"L  c #9D9C9C",
"P  c #B9B7B7",
"I  c #BAB8B7",
"U  c #BCBABA",
"Y  c #E58485",
"T  c #F08387",
"R  c #F48489",
"E  c #F08B8F",
"W  c #F18E92",
"Q  c #EA9495",
"!  c #E79798",
"~  c #E99C9E",
"^  c #F29296",
"/  c #F2969A",
"(  c #F3999D",
")  c #C2BFBF",
"_  c #CDBFBF",
"`  c #DFB3B4",
"'  c #DCBDBD",
"]  c #E7A4A5",
"[  c #E6A7A8",
"{  c #E6ABAC",
"}  c #E5B4B4",
"|  c #BFC1C1",
" . c #C3C4C4",
".. c #CBC4C4",
"X. c #C7CDCD",
"o. c #CBCCCC",
"O. c #D3CACA",
"+. c #C5D5D5",
"@. c #CDD0D0",
"#. c #D3D4D4",
"$. c #D6D8D8",
"%. c #DADBDB",
"&. c #DFE0E0",
"*. c #E5E5E5",
"=. c #E7E8E8",
"-. c #EBEBEB",
";. c #F4F4F4",
":. c #F7F8F8",
">. c #FEFEFE",
/* pixels */
"                          +.X..._ .._ ..X.@.                          ",
"                    +...} ~ D z g i g c C ! ` ..+.                    ",
"                +._ ~ A A R R d 9 i e 6 4 4 4 z ~ ..+.                ",
"              X.[ n F ^ ^ / W s p i i i a s s 8 4 g } X.              ",
"            ..S M ^ ( / W T c 9 a i i i i r i i g q 4 S X.            ",
"          O.m F ( ^ H V j q 9 i i i i i i i i i i i g 3 m O.          ",
"        ..b H ( A k 9 5 0 i i i i i i i r i i r i i r g 4 B X.        ",
"      X.Z F ^ z 5 0 i a i i i r i i i r i i i i i i i r g 4 Y o.      ",
"    +.[ c W i 6 a i i i i i i i i i i i i i i i i i i i r g 4 } +.    ",
"    ..z T g 0 a p i i i r i i i i i r i i i i i i r i i r i 8 k ..    ",
"  +.! n m 3 a r i i i i i i i i i i i i i r i i i i i i i r s 3 [ +.  ",
"  ..v N 9 a r i i i i i i i p t i u a t r i i i i i r i i i a 3 m o.  ",
"  } t l q i i i i i i i i e y 1 @ X @ 1 y t i p i i i i i i i a 4 '   ",
"+.Q 4 s r i i i i i i i w 2 o . - < - . o 2 w i i p i i i i i s 4 ] +.",
"o.C 4 s i i i i i i i p y o . U ;.>.;.U . o y p i i i i i i r s 4 K @.",
"..c 7 i r p r p w p r w 1 . U >.>.>.>.>.I . 1 e r r w i r i p i 4 N X.",
") > % * & & & & & & * & + ; ;.>.>.>.>.>.;.; + * * * & & & & & * $ h  .",
"U . . . . . . . . . . . . < >.>.>.>.>.>.>.< . . . . . . . . . . . .  .",
"X.P U P P P U P P P U P = = :.>.>.>.>.>.:.= = P U U P U P U P P I I X.",
"#.>.>.>.>.>.>.>.>.>.>.>.L . U >.>.>.>.>.U . L >.>.>.>.>.>.>.>.>.>.>.X.",
" .>.>.>.>.>.>.:.>.>.:.>.=.. . U ;.>.;.U . . =.>.:.>.>.>.>.>.:.>.>.;. .",
" .:.>.>.>.>.>.>.>.>.>.>.>.#.. . # , # . . #.>.>.>.>.>.>.>.>.>.>.;.;. .",
"  =.>.>.>.>.>.>.>.>.>.>.>.>.=.L : O : L =.>.>.>.>.>.>.>.>.>.>.=.;.=.  ",
"  o.>.>.>.>.>.>.>.>.>.>.>.>.>.>.:.;.:.>.>.>.>.>.>.>.>.>.>.>.-.%.:.X.  ",
"   .:.>.>.>.>.>.>.>.>.>.>.>.>.>.>.>.>.>.>.>.>.>.>.>.>.>.>.=.#.;.;. .  ",
"    o.>.>.>.>.>.>.>.>.>.>.>.>.>.>.>.>.>.>.>.>.>.>.>.>.>.=.$.*.:.o.    ",
"     .;.>.>.>.>.>.>.>.>.>.>.>.>.>.>.>.>.>.>.>.>.>.>.;.*.%.%.;.-. .    ",
"       .:.>.>.>.>.>.>.>.>.>.>.>.>.>.>.>.>.>.>.>.:.-.%.%.%.-.:. .      ",
"        o.:.>.>.>.>.>.>.>.>.>.>.>.>.>.>.>.>.:.-.%.%.%.%.=.:.o.        ",
"          %.;.;.;.>.>.>.>.>.>.>.>.>.>.:.;.=.%.%.%.%.%.-.;.#.          ",
"            o.;.-.*.=.;.;.;.;.;.;.=.=.%.%.%.%.%.%.%.;.;.o.            ",
"               .;.;.=.%.#.$.%.#.%.%.%.%.%.%.%.*.-.;.;. .              ",
"                 .o.;.:.;.-.=.*.*.%.%.&.=.=.;.:.;.o. .                ",
"                     .o.=.:.>.:.:.;.:.>.>.:.=.X. .                    ",
"                          |  .o.@.#.o.o. . .                          "
};
