/* XPM */
static char *_879743bc3a74cd0ad8b818449fe8f38M78BCbX3m5CcEZ5w[] = {
/* columns rows colors chars-per-pixel */
"25 43 194 2 ",
"   c None",
".  c black",
"X  c #00000A",
"o  c #00001A",
"O  c #000028",
"+  c #351E34",
"@  c #2F2B25",
"#  c #392830",
"$  c #450000",
"%  c #49383B",
"&  c #763823",
"*  c #534600",
"=  c #746000",
"-  c #59453F",
";  c #715822",
":  c #151D4E",
">  c #544044",
",  c #634D4E",
"<  c #6C585E",
"1  c #882019",
"2  c #A43B09",
"3  c #853320",
"4  c #BD3120",
"5  c #F80000",
"6  c #E7001B",
"7  c #E91A0A",
"8  c #FF2B19",
"9  c #ED3B1A",
"0  c #FC3C1A",
"q  c #98401F",
"w  c #A65200",
"e  c #A3471D",
"r  c #A7571C",
"t  c #B95D1C",
"y  c #90781A",
"u  c #AA611E",
"i  c #B7651B",
"p  c #B8771A",
"a  c #8E4E21",
"s  c #954822",
"d  c #995B22",
"f  c #A14920",
"g  c #B16929",
"h  c #E8561D",
"j  c #C87A00",
"k  c #C16F1C",
"l  c #C0601D",
"z  c #C9761A",
"x  c #D07A1A",
"c  c #EB6018",
"v  c #F36911",
"b  c #C27821",
"n  c #E46639",
"m  c #946747",
"M  c #827276",
"N  c #E17961",
"B  c #A98011",
"V  c #B3971C",
"C  c #B89926",
"Z  c #C69C00",
"A  c #C88E19",
"S  c #DE8A19",
"D  c #D68619",
"F  c #CA9F10",
"G  c #DD9A16",
"H  c #D3921A",
"J  c #E98714",
"K  c #FA8117",
"L  c #E39517",
"P  c #EC9B15",
"I  c #E29B14",
"U  c #FD9E10",
"Y  c #DBBA00",
"T  c #DAB70D",
"R  c #D8B608",
"E  c #C3A31C",
"W  c #CDA716",
"Q  c #D8A813",
"!  c #D8B718",
"~  c #D6A809",
"^  c #E4A700",
"/  c #FEAD0F",
"(  c #E4BA08",
")  c #FEB40E",
"_  c #FDBC0E",
"`  c #E3A414",
"'  c #E3AB13",
"]  c #ECAB13",
"[  c #FCA413",
"{  c #FEAB11",
"}  c #F4A015",
"|  c #ECB816",
" . c #F4B513",
".. c #F3BB16",
"X. c #DE8120",
"o. c #E08B21",
"O. c #C1A725",
"+. c #CFB022",
"@. c #C7AF39",
"#. c #DBC201",
"$. c #DAC517",
"%. c #E4C400",
"&. c #EBC50C",
"*. c #EECA0B",
"=. c #EAC407",
"-. c #F1CE00",
";. c #F4C70B",
":. c #FCC30C",
">. c #F2CD0B",
",. c #FCCD0A",
"<. c #EED409",
"1. c #F4D304",
"2. c #FCD605",
"3. c #FEDB05",
"4. c #FCD509",
"5. c #FDDA09",
"6. c #F4D606",
"7. c #E8C716",
"8. c #F2CA13",
"9. c #F7C911",
"0. c #F7D410",
"q. c #FEDC13",
"w. c #FBD519",
"e. c #FDDB1B",
"r. c #F6D911",
"t. c #FEE202",
"y. c #FFED03",
"u. c #FFE20A",
"i. c #FFEB0A",
"p. c #FFF200",
"a. c #FFE514",
"s. c #FFEC12",
"d. c #FFEA1B",
"f. c #FFF81C",
"g. c #DAD021",
"h. c #DDC82B",
"j. c #E8CE2F",
"k. c #E4D327",
"l. c #ECDC28",
"z. c #FFDC21",
"x. c #E0C630",
"c. c #E5D431",
"v. c #F1D032",
"b. c #FFED24",
"n. c #FFEA27",
"m. c #FAF02C",
"M. c #FFE735",
"N. c #FFFF32",
"B. c #BAB345",
"V. c #998F73",
"C. c #B39964",
"Z. c #B6B37B",
"A. c #FF845C",
"S. c #DBB846",
"D. c #F1D742",
"F. c #EAD65A",
"G. c #F4D655",
"H. c #ECD544",
"J. c #FEF54D",
"K. c #FFFD4A",
"L. c #FFF855",
"P. c #ECDA77",
"I. c #FFFF6E",
"U. c #EDE37B",
"Y. c #FFF57D",
"T. c #FEF975",
"R. c #F5E165",
"E. c #A49B92",
"W. c #9695AA",
"Q. c #D0BD80",
"!. c #C7BD91",
"~. c #C9BFB1",
"^. c #DBCA87",
"/. c #E9CE80",
"(. c #EBE683",
"). c #F1E284",
"_. c #FFFF8C",
"`. c #FFFD82",
"'. c #EFE898",
"]. c #FFFF9A",
"[. c #D1CDAB",
"{. c #DCDABD",
"}. c #CCC9B6",
"|. c #E1DDA4",
" X c #E0DEAF",
".X c #FAF8AA",
"XX c #F0EAB7",
"oX c #D8D7D1",
"OX c #F3EFCA",
"+X c #F4F2C9",
"@X c #E8E4C2",
"#X c #E3DFE0",
"$X c #FFFFEC",
"%X c #FFFFFB",
/* pixels */
"                            #                     ",
"                            > @                   ",
"                            , . o                 ",
"                            M V.* o               ",
"                              +XJ.R ;             ",
"                              }._.y.z.            ",
"                                (.y.t.7.          ",
"                                B.N.3.s.W         ",
"                                  g.i.5.8.        ",
"                                  V r.u.i.!       ",
"                          {.).M.i.u.( &.t.7.      ",
"                      #X$X`.y.3.5.5.5.| 9.i.O.    ",
"                @XOX%X$XY.t.e.r.5.5.5.t.2.5.7.    ",
"             X.XT.R.+XY.t.e.5.5.5.5.3.G.v.3.q.    ",
"        [.].J.t.2./.T.H.G.3.5.5.r.5.Y oXE.%.b.O.  ",
"      |.I.t.3.d.~ ^.Y W.}.-.z.*.4.5.Y : # -.s.W   ",
"    !.K.t.n.w.!   '.D.X y 3.5.<.5.3.5.Y %.0.5.!   ",
"  M > = C R       Z.M.-.3.5.>.*.*.&.4.d...9 K W   ",
"< % . O           N v r.q.6.<.4.5.>.5.6.c 8 0 i   ",
"                  A.5 | t.3.3.3.3.5.3.5.J 6 h p   ",
"              @X|.n 7 7.3.3.3.5.5.5.5.3.>.I  .    ",
"        XX.X].T.K.7.G t.1.5.5.5.5.5.5.4.4.5.|     ",
"      _.K.p.y.t.t.i.<.>.e.5.t.u.3.5.3.4.4.4.]     ",
"      j ^ ( w.e.a.u.r.#.-.2.8.( ( *.5.5.,.,. .    ",
"      g o.x D G ' ( h.F.P.S.Z $.<.4.5.4.4.,.]     ",
"        k z k i 2 C.(.).F.k.i.y.5.3.4.2.,.H l     ",
"        d k u w m U.D.%.1.y.3.5.5.5.2.4.;.t 4 3   ",
"          a a $ Z.L.#.m.s.5.3.5.5.5.2.2.2._ I r   ",
"                  L.F.m.5.5.3.2.3.t.2.4.,.:.:.L   ",
"                  x.@.j.3.5.3.3.>.Q ` 4.,.:.) P   ",
"                    B &.T T T T F A ;.3.,.:.) [   ",
"                    c.y.2.1.4.2.3.3.3.4.4.:.) {   ",
"                    l.3.3.3.5.5.5.4.4.4.,.:.) { p ",
"                  @.f.3.2.5.3.2.4.4.4.4.,._ ) J 1 ",
"                  l.i.4.5.4.4.2.4.4.4.4.:._ / U z ",
"                  d.1.4.4.4.4.4.4.0.4.:.:.) [ / J ",
"                  a.5.w.4.4.3.4.w.,.:.:._ / [ [ D ",
"                  A  .` I G ` ]  .:.:.:.) / / { b ",
"                    f 2 f f 2 f l x L I } } [ o.  ",
"                  +.9.g &         3 s f r e s     ",
"                  E                     & H C     ",
"                                          z.k.    ",
"                                            O.    "
};
