/* XPM */
static char *aa29ac99c2dd4686cacf006790c7c26c5fkjwZCQji2MsACw[] = {
/* columns rows colors chars-per-pixel */
"38 48 207 2 ",
"   c None",
".  c black",
"X  c #04312F",
"o  c #440000",
"O  c #7C0000",
"+  c #422E39",
"@  c #77383B",
"#  c #5D5C5F",
"$  c #7C4557",
"%  c #5D7767",
"&  c #7A786A",
"*  c #737774",
"=  c #830000",
"-  c #AE001C",
";  c #B1063B",
":  c #AE0D3C",
">  c #90344B",
",  c #B42644",
"<  c #A82541",
"1  c #845C54",
"2  c #A4434E",
"3  c #A07D59",
"4  c #987873",
"5  c #B17773",
"6  c #CB505B",
"7  c #CF7955",
"8  c #C65A63",
"9  c #D55B63",
"0  c #DB6469",
"q  c #DD7374",
"w  c #CA7367",
"e  c #EB6E72",
"r  c #EA7778",
"t  c #F77779",
"y  c #E16B6D",
"u  c #61816E",
"i  c #7D9875",
"p  c #A19600",
"a  c #AFA500",
"s  c #B7AD0D",
"d  c #A6A22A",
"f  c #A9A536",
"g  c #C4BC2A",
"h  c #C9C000",
"j  c #CAC53D",
"k  c #C7C137",
"l  c #C7C021",
"z  c #989B46",
"x  c #B2815A",
"c  c #AEAD4E",
"v  c #8B9574",
"b  c #A18A7D",
"n  c #B18E67",
"m  c #89A37C",
"M  c #9BA768",
"N  c #ABB572",
"B  c #C0BC4E",
"V  c #C0886D",
"C  c #ED817F",
"Z  c #BEC06B",
"A  c #D8D356",
"S  c #CFC84A",
"D  c #C8C66B",
"F  c #CBC96B",
"G  c #C8C867",
"H  c #D1CF6F",
"J  c #D1CD66",
"K  c #D4D16C",
"L  c #D7D467",
"P  c #D5D372",
"I  c #D8D673",
"U  c #DDDB75",
"Y  c #DCDB7B",
"T  c #CECD72",
"R  c #E0DE77",
"E  c #E1DF78",
"W  c #E0DB62",
"Q  c #E6E366",
"!  c #E9E56C",
"~  c #E4E274",
"^  c #EAE674",
"/  c #E4E279",
"(  c #E9E77C",
")  c #ECE97D",
"_  c #EEEA76",
"`  c #F0ED7C",
"'  c #3F8591",
"]  c #49848A",
"[  c #5A8D8C",
"{  c #599598",
"}  c #5A908E",
"|  c #779E86",
" . c #639B9B",
".. c #6A9F9A",
"X. c #679A97",
"o. c #76A396",
"O. c #5F9DA0",
"+. c #5FA2A7",
"@. c #5DADB5",
"#. c #64A2A3",
"$. c #6BA6A4",
"%. c #65A9AC",
"&. c #6CAEAE",
"*. c #66A7A9",
"=. c #75ACA5",
"-. c #6FB0AF",
";. c #70B0AF",
":. c #7EB3A8",
">. c #68AEB2",
",. c #6EB1B2",
"<. c #6DB5B8",
"1. c #72B4B4",
"2. c #7AB5B2",
"3. c #74BABA",
"4. c #7CBDB9",
"5. c #7DC0BC",
"6. c #9A8F82",
"7. c #8D9885",
"8. c #A19485",
"9. c #B59186",
"0. c #83A48E",
"q. c #98A885",
"w. c #9CA99B",
"e. c #8DB49C",
"r. c #85B297",
"t. c #92B69D",
"y. c #9FB49E",
"u. c #BCA894",
"i. c #AAAD98",
"p. c #85B3A3",
"a. c #8ABCAA",
"s. c #8BB8A7",
"d. c #94BCA4",
"f. c #97BEAA",
"g. c #83BDB5",
"h. c #82BDB8",
"j. c #9DBAB3",
"k. c #91ABA3",
"l. c #BCAFA1",
"z. c #A4BBA7",
"x. c #B1AEB0",
"c. c #C39A8A",
"v. c #C68B82",
"b. c #F08380",
"n. c #EE8481",
"m. c #D2B2AB",
"M. c #B9C888",
"N. c #A7C59D",
"B. c #BFCD90",
"V. c #94C0A6",
"C. c #95C1AA",
"Z. c #9BC4AB",
"A. c #9DC9AE",
"S. c #96C4AA",
"D. c #8DC4B6",
"F. c #8AC3B9",
"G. c #83C1BA",
"H. c #94C6B4",
"J. c #9DCBB2",
"K. c #96CBBB",
"L. c #9DCEB9",
"P. c #94C9B8",
"I. c #9DD1BC",
"U. c #9ED2B4",
"Y. c #A9CDAB",
"T. c #A3C8A7",
"R. c #A1CDB2",
"E. c #A8C8B7",
"W. c #B7CABE",
"Q. c #A4D1B6",
"!. c #A3D4BA",
"~. c #A9D6BB",
"^. c #A5DABE",
"/. c #ABDABE",
"(. c #B1DEBF",
"). c #C4CC82",
"_. c #DBDA94",
"`. c #ECEA81",
"'. c #F0EE80",
"]. c #FCFB88",
"[. c #D2D6B3",
"{. c #E2E0BC",
"}. c #93CCC1",
"|. c #96D1C3",
" X c #9CD4C2",
".X c #9EDDC5",
"XX c #8BC9C0",
"oX c #A4DCC4",
"OX c #ADDDC1",
"+X c #A3D6C0",
"@X c #B0DEC0",
"#X c #B8D1C4",
"$X c #BDDDDD",
"%X c #ADE1C4",
"&X c #AEE5CB",
"*X c #A7E1C5",
"=X c #B1E2C4",
"-X c #B5E6C9",
";X c #B7E9CB",
":X c #B9EBCC",
">X c #BBEFD0",
",X c #BFF3D3",
"<X c #D4D7D4",
"1X c #E6DDDC",
"2X c #E4E2C5",
"3X c #E8E7E7",
"4X c #FCFDFE",
/* pixels */
"                                    d.Z.R.Z.A.A.d.                          ",
"                                A.-X,X;X%X=X@X-X:X=XA.                      ",
"                            e.-X;X/.| f.C.!./.~./.OX-X=X                    ",
"                          e.:X=X~.u 3Xx.| OX/./././.R.U.%X                  ",
"                          /.(./.z.x.3X+ u -X/./.+XOXd.w.z.d.                ",
"                        f.;X/.^.E.# . . % OX/././.OXd.<X* e.                ",
"                Z.s.    Z.=X/.^.<X$ O O * %X/././.@Xd.X . f.J.              ",
"          e.-XV.:XZ.    K./././.E.4 8 5 Z.OX/././.=Xt.o o E.R.              ",
"          Z.-X=X/.~.    }.OX^./.^.Q.^.^.OX/./.!././.I.b > E.R.              ",
"        P.-X/././.;XT.] 5./.A.J.%X%X%X(.oXOX%XS.R.R.Q.-XQ.~./.              ",
"          G././././.=Xp.+.L.^.b b w.w.b b b 8.Z.OXQ.T.R.%X%X>XA.            ",
"          +.I.OX/././.~.$.2.%Xy.- , : ; , , ; < 4 4 2 @ & 7.f.              ",
"          O.K.@X/./.^.OXJ.O.P.%Xb ; 8 q r r q 8 6 9 0 w = 1 |               ",
"          { XXOX/./././.@Xp.%.!.%Xv y C r n.n.n.n.n.r t 5 S.          V.    ",
"            1././././.~.OXR.$.,.L.%Xz.V r y e e r e y c./.      d.A./.=X    ",
"            { |./././.OX/.OXp.#.>.F.OX@XY.l.u.c.c.u.E.^.d.t.Q.-X;X;XQ.f.R.d.",
"              4./././././.OXM d 0...&.h.I..X.X*X*XI.A.Z.~.;X%X/././.R.R.oXo.",
"              #.F./././.OXI.I A s s c v m 0.| r.m N Z Q.(.^././././.@XoX]   ",
"              [ <.H.(./.I.M.) ) R L S g g f k S Q _ ( Y././././.OX@X-X..    ",
"              k.2.@.F.A.M.L P P I I I P P P P Y / E ^ M.^./././.@XoX$.      ",
"              j.j.m M D U ) ( ) ( ( ( ( ) E K / U I I L y.%X(./.|.#.        ",
"              j.E.a A ) P E ) ) ( ) ( ) ) ( I ) ) `.) `.U Z.K.4.{           ",
"      d.s.    l.+Xc `.) ) K ) ) ) ( ) ( ) ( P ) ) ) ( ( ) c }               ",
"    +X-X;XoXx n <X_.^ `.) U P `.( ( ( ( ( ( P ( ( ( ( ) I ^ a               ",
"  @X=X@X/.*Xn 7 4X{.Q `.( ) P U '.) ) ) ) ) P ` ) ) ) U I ].T               ",
"f.>XR.P./.oXx 7 4X2XQ `.) ) ( P U R R R R R H E R ( / P ) ].P               ",
"R./.s.s.f.OX3 V 4X2XQ `.( ) ) K I U U U U I D U I I F / ) ].D               ",
"R.R.~.=XC.~.n m.4X[.! `.( ) I U '.) ) `.) ) P `.) ) R I `.].                ",
"H.Q.J.OXQ.!.q.1X4X).` ( ) E P ) ( ( ) ( ) / I ) ( ) ) P _ _                 ",
"{ OXR.%XJ.Q.Z.1X4XY ) ( ( H ( ) ( ) ( ( ) / I ) ( ( ` L M.Y.Q.Z.            ",
"  $. XP.=./.Q.<X4X_.! ` U U ) ( ( ) ) ( '.R U ) ( ` I T.^.OXOX:Xt.          ",
"    { #.=././.~.4X[.M.B.D ` `.( ) ( ( `.E F I `.) U T.oX/././.Z.|.a.        ",
"      X.3.4././.W.~.oX+XR.M.^ `.( ) ) P P ) P E ~ N.OX/././.Q.a.,.L.J.f.    ",
"        } #.3.|.s.~././.@X+XB.^ ) R H R ) ) ( L ).!.!./././.P.&.-.g.5.a.    ",
"              ' s.=X/./././.I.).~ U ) ` ) ) '.^ t.,.&.!.(.L.&.&.;.%.-.K.&X  ",
"                A.=X/./././.%Xf.c ~ / ( ( ~ ~ G $.>.&.!./.1.&.;.&.1.,.3.{   ",
"                R.OX/././././.1.m h k j j j l z *.,.$.OXD.%.;.&.-.&.3.#.    ",
"                Q.OX/./././.F.<.X.p f d d d         ..|.1.&.;.&.&.3.$.      ",
"                Q.OX/././.!.,.*.                     .3.&.&.&.;.3.$.        ",
"                R.OX/././.g.3.X.                      1.3.1.3.3. .          ",
"                J.-X^.@X!.-.1.[                         #.$.#.              ",
"                  -XOX!.2.&.3.#.                                            ",
"                  V.+X%.%.&.3. .                                            ",
"                  R.OXD.F.P.g.                                              ",
"                  ;X=X/./.=Xp.                                              ",
"                C.=XR.=X@X&X..                                              ",
"                e.  C.Q.d.-X                                                ",
"                          e.                                                "
};
