/* XPM */
static char *fc39c33b978a43f5c9a27b3c6d9540a2Ro9LW9PLUjHK0RNX[] = {
/* columns rows colors chars-per-pixel */
"47 30 115 2 ",
"   c None",
".  c #3E3B33",
"X  c #413E36",
"o  c #46433B",
"O  c #49463E",
"+  c #4D4A43",
"@  c #514E47",
"#  c #524F48",
"$  c #55524B",
"%  c #58554E",
"&  c #5A5751",
"*  c #5E5B54",
"=  c #615E57",
"-  c #625F58",
";  c #65625A",
":  c #6B675E",
">  c #6A6760",
",  c #6E6B63",
"<  c #716D64",
"1  c #726F68",
"2  c #747066",
"3  c #76736C",
"4  c #79756E",
"5  c #7A7770",
"6  c #7C7972",
"7  c #807D76",
"8  c #827F78",
"9  c #85827A",
"0  c #8B877F",
"q  c #8A8780",
"w  c #8E8B83",
"e  c #918E86",
"r  c #928F88",
"t  c #949087",
"y  c #96938A",
"u  c #99968F",
"i  c #9A968E",
"p  c #9B978E",
"a  c #9B978F",
"s  c #99958C",
"d  c #98948B",
"f  c #9B988F",
"g  c #9C988E",
"h  c #9C988F",
"j  c #9D998F",
"k  c #9B9891",
"l  c #9C9890",
"z  c #9D9990",
"x  c #9D9991",
"c  c #9D9A91",
"v  c #9E9A91",
"b  c #9D9A92",
"n  c #9E9A92",
"m  c #9F9B92",
"M  c #9F9B93",
"N  c #9E9C93",
"B  c #9F9C93",
"V  c #9F9C94",
"C  c #9F9C95",
"Z  c #A09B92",
"A  c #A09C93",
"S  c #A19D93",
"D  c #A09D95",
"F  c #A19D95",
"G  c #A29E94",
"H  c #A29E95",
"J  c #A39E95",
"K  c #A39F95",
"L  c #A19E97",
"P  c #A39F96",
"I  c #A49F96",
"U  c #A29F98",
"Y  c #A4A096",
"T  c #A5A197",
"R  c #A3A098",
"E  c #A3A099",
"W  c #A5A198",
"Q  c #A4A199",
"!  c #A5A199",
"~  c #A7A399",
"^  c #A4A19A",
"/  c #A5A19A",
"(  c #A5A29B",
")  c #A7A39A",
"_  c #A6A29B",
"`  c #A6A39C",
"'  c #A7A49C",
"]  c #A6A49D",
"[  c #A7A49D",
"{  c #A7A59E",
"}  c #A8A399",
"|  c #A8A49D",
" . c #A8A59E",
".. c #A8A59F",
"X. c #A8A69E",
"o. c #A9A69E",
"O. c #A9A69F",
"+. c #AAA79F",
"@. c #AAA7A0",
"#. c #ABA8A0",
"$. c #ABA8A1",
"%. c #ACA9A1",
"&. c #ACA9A2",
"*. c #ADAAA3",
"=. c #AEABA3",
"-. c #AEABA4",
";. c #AFACA4",
":. c #AFACA5",
">. c #B0ADA5",
",. c #B0ADA6",
"<. c #B1AEA6",
"1. c #B2AFA8",
"2. c #B5B1AA",
"3. c #B6B2AB",
"4. c #B7B4AC",
/* pixels */
"                                                                                              ",
"                                                                                              ",
"                                                                          s s                 ",
"                                           . . . . .^ B s s s s s s s B G T G } s             ",
"                                       .1.1.,. .^ ^ G G G G G Z z g g s s s s s ^ a           ",
"                                   .,.-. . .a d d d s s s s s s s s s s s s s s d I           ",
"                                ' 2. . . .z y d s s s s s s s s s s s s s s s s d g g         ",
"                            ^ :.:. . . .^ d s s s s s s s s s s d s s s s s s s s s I 6       ",
"                           .4. . .@. . .G d s s s s s s s d s s s s s s s s s s s s V >       ",
"                      s z $.@. . . . .@.z y s s s s s s s s s s s s s s s s s d s s k -       ",
"                s s G G s d V ' @.|  . .V d s s s s s s s s s s s s s s d d y d s ^ k * -     ",
"            s z G z s s s s d s ^  . . .f d s s s s s s s s s s s s d s k f B ^ ` @.q $ -     ",
"       .' T z s s s s s s s s y d G ` G d s s s s s s s s s d s s d s s e r e w 9 7 4 - ;     ",
"   .,.2.&.A s s s s s s s s s s s d s d s s s s s s s s s s s d d z E > , 5 3 5 5 5 6 4 ; *   ",
"  z ^ &. .^ s s s s s s s s s s s s s d s s s s s s s s s d s z U $.8 . - 7 6 6 6 6 6 6 5 *   ",
"  ; 2 y  .&.z s s s s s s s s s d d s d d s s s s s s y s z ^  .-.r O # + 3 6 6 6 6 6 6 6 5   ",
"  2 < : 7 A o.p s s s s s s s s s l s z g a d d d y s V ^ @.` @.C $ + $ + * 6 6 6 6 6 6 6 9 4 ",
"  < 4 < : , e g s s s y y y y r r w w q 0 y a p a A ` '  .' @.@.> O $ @ @ @ 1 6 6 6 6 6 6 9 6 ",
"    2 < < < : 4 8 7 7 6 6 6 5 5 5 5 6 : = 2 6 e I @.$.@.` @.@.6 . $ @ @ # + * 6 6 5 6 6 8 6   ",
"    < 2 , < < < 5 5 5 5 6 6 6 6 6 6 5 * - < : 2 7 0 s E @.-.w o $ # @ @ @ @ + 1 6 5 6 6 9     ",
"    < 4 < < , < 6 6 6 6 6 6 6 6 5 6 > & - , < 3 6 4 5 6 q y * + @ @ # # @ # + * 6 6 5 6 6     ",
"      4 < < , < 5 6 6 6 6 6 6 5 6 3 * * * > < 4 6 6 6 6 4 3 4 , * # + + # # @ + 1 6 6 9 6     ",
"      < 3 < , < 4 6 6 6 6 6 6 6 6 ; * * * ; < 4 6 6 6 6 6 6 6 6 6 4 > % + + # @ & 6 6 6       ",
"        < 4 2 < 4 6 5 6 6 6 6 6 2 * * * * = , 2 6 6 6 6 6 6 6 6 6 6 6 5 1 * # + + > q 3       ",
"            < 1 7 9 6 6 6 6 6 6 - & = * * * > 4 6 6 6 6 6 6 6 6 6 5 6 6 6 7 4 > $ = 6         ",
"                2 5 6 6 6 9 9 2 = = * * = * ; 3 6 6 6 6 6 6 6 6 6 6 6 6 6 6 9 9 6 <           ",
"                          4 4 - * = = ; ; - - 4 6 5 5 6 6 6 6 6 6 6 6 9 9 6 5 4               ",
"                                      & * * * 3 q 9 8 6 6 6 6 6 9 9 6 5 2                     ",
"                                                  4 6 6 6 q 8 6 5                             ",
"                                                                                              "
};
